<svg xmlns="http://www.w3.org/2000/svg" width="1448" height="724" viewBox="0 0 1448 724">
<g>
<path d="M 437.79 528.42 C411.90,533.73 381.05,523.63 351.60,500.20 C336.11,487.88 314.46,464.79 296.55,441.50 C281.27,421.64 279.10,419.77 275.87,423.66 C274.76,424.99 274.50,432.36 274.50,461.91 C274.50,497.30 274.43,498.65 272.34,503.18 C271.15,505.75 268.30,509.89 266.00,512.38 C256.92,522.24 244.69,526.34 224.50,526.31 C196.09,526.27 179.84,517.56 173.87,499.19 C171.80,492.81 171.68,490.34 171.24,445.68 C171.21,443.00 171.19,440.45 171.16,438.02 C170.80,403.50 170.71,395.05 174.82,390.01 C176.43,388.02 178.70,386.57 181.86,384.25 C204.88,367.39 223.04,353.41 235.50,342.98 C249.78,331.03 275.77,306.86 279.45,302.12 C280.56,300.68 285.79,294.33 291.07,288.00 C305.35,270.87 316.64,256.22 336.53,229.00 C356.18,202.10 364.38,193.08 373.58,188.25 C394.60,177.22 420.74,180.95 437.47,197.37 C454.36,213.94 456.40,237.14 442.82,258.16 C434.33,271.29 416.74,291.00 376.34,332.65 C355.86,353.75 350.00,360.36 350.00,362.35 C350.00,365.83 356.59,373.54 379.99,397.40 C413.87,431.96 429.17,442.98 458.00,453.60 C466.74,456.82 469.37,458.32 473.66,462.49 C484.39,472.90 484.40,487.84 473.71,504.83 C466.34,516.53 452.99,525.30 437.79,528.42 ZM 1170.92 523.92 C1150.84,528.98 1131.52,526.74 1111.46,517.03 C1096.13,509.61 1084.70,499.79 1075.33,486.00 C1058.11,460.66 1054.12,424.51 1065.10,393.38 C1077.13,359.24 1101.70,335.01 1133.59,325.80 C1140.20,323.89 1143.89,323.51 1156.00,323.51 C1173.57,323.50 1184.48,325.89 1197.69,332.63 C1202.41,335.03 1206.93,337.00 1207.75,337.00 C1208.57,337.00 1210.72,335.70 1212.54,334.10 C1225.58,322.65 1255.80,323.90 1266.73,336.34 C1273.01,343.49 1273.40,346.67 1272.40,381.95 C1271.22,423.50 1271.37,441.28 1272.97,447.92 C1274.85,455.71 1280.21,460.77 1289.79,463.82 C1298.44,466.57 1302.99,470.59 1305.37,477.59 C1310.59,492.91 1301.76,512.96 1286.32,520.84 C1265.29,531.56 1235.34,526.54 1215.76,509.00 C1209.12,503.05 1208.85,503.06 1200.49,509.55 C1192.87,515.46 1180.37,521.54 1170.92,523.92 ZM 696.46 525.51 C688.59,526.91 684.39,527.14 680.50,526.37 C679.40,526.16 676.03,525.50 673.00,524.90 C663.08,522.97 651.62,516.65 643.54,508.67 C625.61,490.98 603.19,446.77 586.06,395.31 C574.36,360.15 573.30,351.94 578.94,340.47 C585.32,327.51 603.15,318.00 621.08,318.00 C633.41,318.00 642.15,323.18 647.85,333.87 C649.62,337.19 653.95,348.36 657.48,358.70 C668.25,390.29 669.95,395.04 675.25,408.37 C678.63,416.89 681.48,422.43 683.67,424.75 C686.76,428.03 687.13,428.16 689.24,426.80 C694.05,423.70 700.99,407.42 716.22,363.54 C724.90,338.52 727.37,332.93 732.16,327.47 C744.84,313.03 772.61,315.45 789.67,332.50 C794.72,337.53 796.16,339.73 797.55,344.53 C800.78,355.64 798.62,365.79 785.72,400.00 C770.15,441.27 750.33,480.93 735.91,499.61 C724.95,513.82 711.12,522.90 696.46,525.51 ZM 971.00 525.94 C959.86,527.73 950.57,526.48 941.30,521.95 C930.75,516.80 924.18,507.14 922.62,494.50 C920.34,475.92 915.77,383.02 916.17,363.32 C916.55,344.82 917.23,342.36 924.14,334.49 C931.36,326.27 940.98,323.03 958.21,323.01 C972.09,323.00 978.24,324.82 985.30,331.03 C987.78,333.21 990.41,335.00 991.15,334.99 C991.89,334.98 994.52,333.38 996.99,331.41 C1002.93,326.69 1013.99,321.45 1022.02,319.56 C1030.56,317.55 1047.40,317.52 1053.06,319.52 C1062.66,322.91 1069.01,331.64 1068.99,341.45 C1068.98,353.45 1062.32,372.32 1055.38,380.01 C1049.21,386.85 1043.50,388.98 1031.26,388.99 C1014.62,389.01 1005.33,394.15 1001.00,405.73 C997.81,414.26 997.65,422.42 999.97,459.12 C1002.35,497.00 1002.13,501.69 997.54,509.52 C992.51,518.10 982.95,524.02 971.00,525.94 ZM 872.25 523.98 C849.81,530.89 826.65,522.91 817.56,505.15 C811.94,494.17 810.57,479.86 810.62,433.00 C810.67,396.38 812.37,366.26 815.06,354.24 C817.47,343.47 824.39,335.05 834.88,330.14 C840.08,327.70 841.50,327.50 854.00,327.50 C867.01,327.50 867.74,327.61 874.01,330.58 C885.30,335.93 891.39,344.46 892.58,356.59 C892.90,359.84 892.21,373.98 891.05,388.00 C886.56,442.46 886.99,452.46 894.45,467.09 C899.91,477.79 901.57,485.45 900.13,493.25 C897.43,507.84 886.88,519.48 872.25,523.98 ZM 559.55 523.98 C540.92,530.39 517.58,524.12 506.64,509.77 C495.05,494.57 487.35,457.46 482.42,393.00 C480.26,364.68 480.74,353.10 484.39,345.64 C487.74,338.80 494.36,332.80 501.85,329.83 C506.65,327.92 509.45,327.58 520.50,327.54 C532.46,327.50 533.94,327.71 539.05,330.10 C550.20,335.33 556.03,343.07 557.93,355.15 C558.47,358.64 559.39,376.35 559.96,394.50 C560.54,412.65 561.26,430.65 561.57,434.50 C563.01,452.31 566.07,459.48 573.92,463.46 C584.59,468.87 588.55,476.09 587.79,488.73 C586.84,504.61 575.79,518.40 559.55,523.98 ZM 1152.89 455.71 C1157.52,457.66 1159.82,458.01 1166.04,457.72 C1175.40,457.27 1181.97,454.00 1189.02,446.29 C1195.58,439.11 1198.33,431.82 1198.38,421.50 C1198.41,414.64 1198.00,412.68 1195.52,407.70 C1192.18,401.01 1186.74,395.69 1180.12,392.65 C1173.04,389.39 1160.39,389.61 1152.88,393.14 C1141.73,398.36 1134.96,406.90 1132.46,418.85 C1128.96,435.64 1136.18,448.65 1152.89,455.71 Z" fill="rgb(22,72,93)"/>
<path d="M 535.25 314.27 C519.67,321.55 499.71,317.18 489.27,304.18 C476.68,288.53 477.57,268.69 491.49,254.09 C501.99,243.09 516.87,239.30 531.66,243.86 C542.37,247.16 549.63,253.71 554.78,264.70 C557.11,269.66 557.50,271.80 557.50,279.50 C557.50,287.54 557.16,289.22 554.33,295.20 C550.28,303.75 543.72,310.30 535.25,314.27 ZM 871.25 314.74 C864.35,317.91 851.74,318.84 845.97,316.62 C827.42,309.47 818.54,297.61 818.51,279.95 C818.50,272.06 818.79,270.80 822.27,263.77 C826.77,254.66 833.46,248.17 841.80,244.81 C846.35,242.98 849.41,242.51 857.00,242.51 C865.35,242.51 867.25,242.86 872.72,245.38 C888.42,252.62 897.77,270.96 894.01,287.13 C891.29,298.80 882.34,309.66 871.25,314.74 Z" fill="rgb(241,100,83)"/>
<path d="M 181.57 370.21 C177.76,372.84 174.07,375.00 173.37,375.00 C171.50,375.00 171.21,371.93 169.52,334.50 C167.64,293.00 167.64,283.26 169.49,261.50 C171.13,242.18 172.34,234.12 174.54,227.90 C179.79,213.02 192.32,202.51 213.09,195.58 C225.82,191.33 233.60,190.02 246.07,190.01 C257.07,190.00 262.81,191.57 268.31,196.10 C279.03,204.94 280.04,213.93 274.48,251.00 C273.70,256.23 272.14,268.07 271.01,277.33 C269.88,286.58 268.36,295.60 267.62,297.36 C264.36,305.16 214.05,347.76 181.57,370.21 Z" fill="rgb(252,151,104)"/>
</g>
</svg>